{"glyphs":{"0":{"ha":758,"x_min":67,"x_max":692,"o":"m 589 972 q 663 944 635 972 q 692 872 692 915 l 692 100 q 663 29 692 58 q 589 0 633 0 l 169 0 q 96 29 125 0 q 67 100 67 58 l 67 872 q 96 944 67 915 q 169 972 125 972 l 589 972 m 522 788 q 496 815 522 815 l 263 815 q 236 788 236 815 l 236 185 q 263 157 236 157 l 496 157 q 522 185 522 157 l 522 788 z "},"1":{"ha":342,"x_min":63,"x_max":272,"o":"m 186 972 q 272 889 272 972 l 272 0 l 104 0 l 104 789 q 78 815 104 815 l 63 815 l 63 972 l 186 972 z "},"2":{"ha":764,"x_min":69,"x_max":694,"o":"m 592 972 q 666 944 638 972 q 694 872 694 915 l 694 514 q 666 444 694 472 q 592 415 638 415 l 279 415 l 279 414 l 265 414 q 239 388 239 414 l 239 157 l 525 157 l 525 285 l 694 285 l 694 0 l 69 0 l 69 472 q 99 543 69 514 q 172 572 128 572 l 499 572 q 525 599 525 572 l 525 788 q 499 815 525 815 l 265 815 q 239 788 239 815 l 239 707 l 69 707 l 69 872 q 99 944 69 915 q 172 972 128 972 l 592 972 z "},"3":{"ha":758,"x_min":67,"x_max":692,"o":"m 589 972 q 663 944 635 972 q 692 872 692 915 l 692 579 q 619 490 692 507 q 692 403 692 476 l 692 100 q 663 29 692 58 q 589 0 633 0 l 169 0 q 96 29 125 0 q 67 100 67 58 l 67 283 l 236 283 l 236 185 q 263 157 236 157 l 496 157 q 522 185 522 157 l 522 381 q 492 411 522 411 l 263 411 l 263 569 l 492 569 q 522 601 522 569 l 522 788 q 496 815 522 815 l 263 815 q 236 788 236 815 l 236 689 l 67 689 l 67 872 q 96 944 67 915 q 169 972 125 972 l 589 972 z "},"4":{"ha":733,"x_min":35,"x_max":664,"o":"m 496 972 l 664 972 l 664 0 l 496 0 l 496 274 l 176 274 q 74 311 113 274 q 35 411 35 349 l 35 469 l 175 972 l 339 972 l 201 468 l 201 458 q 228 432 201 432 l 496 432 l 496 972 z "},"5":{"ha":764,"x_min":69,"x_max":694,"o":"m 694 708 l 525 708 l 525 815 l 239 815 l 239 599 q 265 572 239 572 l 592 572 q 666 544 638 572 q 694 472 694 515 l 694 100 q 665 29 694 58 q 592 0 636 0 l 172 0 q 99 29 128 0 q 69 100 69 58 l 69 275 l 239 275 l 239 185 q 265 157 239 157 l 499 157 q 525 185 525 157 l 525 389 q 499 415 525 415 l 172 415 q 99 444 128 415 q 69 515 69 472 l 69 972 l 694 972 l 694 708 z "},"6":{"ha":758,"x_min":67,"x_max":692,"o":"m 589 972 q 663 944 635 972 q 692 872 692 915 l 692 688 l 522 688 l 522 788 q 496 815 522 815 l 263 815 q 236 788 236 815 l 236 539 q 307 572 254 572 l 589 572 q 663 543 633 572 q 692 472 692 514 l 692 100 q 663 29 692 58 q 589 0 633 0 l 169 0 q 96 29 125 0 q 67 100 67 58 l 67 872 q 96 944 67 915 q 169 972 125 972 l 589 972 m 264 414 q 236 388 236 414 l 236 185 q 263 157 236 157 l 496 157 q 522 185 522 157 l 522 388 q 496 414 522 414 l 482 414 l 482 415 l 349 415 l 349 414 l 264 414 z "},"7":{"ha":706,"x_min":28,"x_max":678,"o":"m 28 728 l 28 972 l 678 972 l 678 811 l 407 0 l 226 0 l 504 815 l 197 815 l 197 728 l 28 728 z "},"8":{"ha":758,"x_min":67,"x_max":692,"o":"m 589 972 q 663 944 635 972 q 692 872 692 915 l 692 579 q 619 490 692 507 q 692 403 692 476 l 692 100 q 663 29 692 58 q 589 0 633 0 l 169 0 q 96 29 125 0 q 67 100 67 58 l 67 403 q 139 490 67 476 q 67 579 67 507 l 67 872 q 96 944 67 915 q 169 972 125 972 l 589 972 m 522 788 q 496 815 522 815 l 263 815 q 236 788 236 815 l 236 601 q 267 569 236 569 l 492 569 q 522 601 522 569 l 522 788 m 522 381 q 492 411 522 411 l 267 411 q 236 381 236 411 l 236 185 q 263 157 236 157 l 496 157 q 522 185 522 157 l 522 381 z "},"9":{"ha":758,"x_min":67,"x_max":692,"o":"m 589 972 q 663 944 635 972 q 692 872 692 915 l 692 100 q 663 29 692 58 q 589 0 633 0 l 169 0 q 96 29 125 0 q 67 100 67 58 l 67 283 l 236 283 l 236 185 q 263 157 236 157 l 496 157 q 522 185 522 157 l 522 421 q 451 388 504 388 l 169 388 q 96 417 125 388 q 67 488 67 446 l 67 872 q 96 944 67 915 q 169 972 125 972 l 589 972 m 522 788 q 496 815 522 815 l 263 815 q 236 788 236 815 l 236 572 q 263 546 236 546 l 494 546 q 522 572 522 546 l 522 788 z "},"\"":{"ha":686,"x_min":128,"x_max":563,"o":"m 563 1160 l 563 -211 l 128 -211 l 128 1160 l 563 1160 m 457 1068 l 231 1068 l 231 1022 l 319 1022 l 319 972 l 229 972 l 229 926 l 457 926 l 457 972 l 367 972 l 367 1022 l 457 1022 l 457 1068 m 367 892 l 229 892 l 229 749 l 457 749 l 457 794 l 367 794 l 367 892 m 319 844 l 319 794 l 274 794 l 274 844 l 319 844 m 457 711 l 229 711 l 229 667 l 319 667 l 319 615 l 229 615 l 229 571 l 367 571 l 367 667 l 457 667 l 457 711 m 457 629 l 411 629 l 411 539 l 229 539 l 229 492 l 457 492 l 457 629 m 457 463 l 319 463 l 319 385 l 367 385 l 367 417 l 411 417 l 411 353 l 274 353 l 274 463 l 229 463 l 229 307 l 457 307 l 457 463 m 457 225 l 229 225 l 229 69 l 457 69 l 457 225 m 411 179 l 411 115 l 274 115 l 274 179 l 411 179 m 457 39 l 229 39 l 229 -7 l 325 -7 l 229 -71 l 229 -117 l 457 -117 l 457 -71 l 317 -71 l 413 -7 l 457 -7 l 457 39 z "}," ":{"ha":392,"x_min":0,"x_max":0,"o":""},"!":{"ha":289,"x_min":53,"x_max":236,"o":"m 85 246 l 53 972 l 236 972 l 206 246 l 85 246 m 139 0 q 84 22 106 0 q 63 76 63 43 l 63 94 q 84 149 63 128 q 139 171 106 171 l 147 171 q 202 149 181 171 q 224 94 224 128 l 224 76 q 202 22 224 43 q 147 0 181 0 l 139 0 z "},"#":{"ha":960,"x_min":22,"x_max":936,"o":"m 879 533 l 761 533 l 696 354 l 814 354 l 756 197 l 639 197 l 581 38 l 411 38 l 469 197 l 317 197 l 258 38 l 90 38 l 149 197 l 22 197 l 79 354 l 206 354 l 271 533 l 144 533 l 203 692 l 328 692 l 385 849 l 554 849 l 497 692 l 650 692 l 707 849 l 876 849 l 819 692 l 936 692 l 879 533 m 526 354 l 592 533 l 439 533 l 374 354 l 526 354 z "},"$":{"ha":758,"x_min":67,"x_max":692,"o":"m 589 972 q 663 944 635 972 q 692 872 692 915 l 692 701 l 522 701 l 522 788 q 496 815 522 815 l 263 815 q 236 788 236 815 l 236 594 q 263 567 236 567 l 589 567 q 663 538 635 567 q 692 467 692 510 l 692 100 q 663 29 692 58 q 589 0 633 0 l 472 0 l 472 -118 l 308 -118 l 308 0 l 169 0 q 96 29 125 0 q 67 100 67 58 l 67 283 l 236 283 l 236 185 q 263 157 236 157 l 496 157 q 522 185 522 157 l 522 383 q 496 410 522 410 l 169 410 q 96 438 125 410 q 67 510 67 467 l 67 872 q 96 944 67 915 q 169 972 125 972 l 308 972 l 308 1089 l 472 1089 l 472 972 l 589 972 z "},"%":{"ha":813,"x_min":40,"x_max":778,"o":"m 40 0 l 611 972 l 761 972 l 190 0 l 40 0 m 131 633 q 67 657 92 633 q 43 718 43 681 l 43 888 q 67 949 43 925 q 131 972 92 972 l 286 972 q 349 949 325 972 q 372 888 372 925 l 372 718 q 349 657 372 681 q 286 633 325 633 l 131 633 m 182 749 l 233 749 q 251 756 244 749 q 258 774 258 764 l 258 832 q 251 849 258 842 q 233 857 244 857 l 182 857 q 165 849 172 857 q 157 832 157 842 l 157 774 q 165 756 157 764 q 182 749 172 749 m 536 0 q 473 24 497 0 q 449 85 449 49 l 449 254 q 473 315 449 292 q 536 339 497 339 l 692 339 q 754 315 731 339 q 778 254 778 292 l 778 85 q 754 24 778 47 q 692 0 731 0 l 536 0 m 588 115 l 639 115 q 657 123 650 115 q 664 140 664 131 l 664 199 q 657 216 664 208 q 639 224 650 224 l 588 224 q 570 216 578 224 q 563 199 563 208 l 563 140 q 570 123 563 131 q 588 115 578 115 z "},"&":{"ha":819,"x_min":67,"x_max":760,"o":"m 760 568 l 760 411 l 706 411 l 706 100 q 676 29 706 58 q 603 0 647 0 l 169 0 q 96 29 125 0 q 67 100 67 58 l 67 403 q 139 490 67 476 q 67 579 67 507 l 67 872 q 96 944 67 915 q 169 972 125 972 l 706 972 l 706 815 l 263 815 q 236 788 236 815 l 236 601 q 267 568 236 568 l 536 568 l 536 644 l 706 644 l 706 568 l 760 568 m 536 411 l 267 411 q 236 381 236 411 l 236 185 q 263 157 236 157 l 510 157 q 536 185 536 157 l 536 411 z "},"(":{"ha":318,"x_min":58,"x_max":272,"o":"m 231 760 l 228 760 l 228 214 l 231 214 l 231 185 q 258 157 231 157 l 272 157 l 272 0 l 165 0 q 91 29 119 0 q 63 100 63 58 l 63 190 l 58 190 l 58 789 l 63 789 l 63 872 q 91 944 63 915 q 165 972 119 972 l 272 972 l 272 815 l 258 815 q 231 788 231 815 l 231 760 z "},")":{"ha":318,"x_min":46,"x_max":260,"o":"m 260 789 l 260 190 l 256 190 l 256 100 q 226 29 256 58 q 153 0 197 0 l 46 0 l 46 157 l 60 157 q 88 185 88 157 l 88 214 l 90 214 l 90 760 l 88 760 l 88 788 q 60 815 88 815 l 46 815 l 46 972 l 153 972 q 227 944 199 972 q 256 872 256 915 l 256 789 l 260 789 z "},"*":{"ha":574,"x_min":24,"x_max":550,"o":"m 92 503 l 176 650 l 24 643 l 24 779 l 176 771 l 92 919 l 219 972 l 286 822 l 351 972 l 481 919 l 394 771 l 550 779 l 550 643 l 394 650 l 481 503 l 351 449 l 286 599 l 219 449 l 92 503 z "},"+":{"ha":719,"x_min":35,"x_max":685,"o":"m 685 599 l 685 440 l 439 440 l 439 194 l 282 194 l 282 440 l 35 440 l 35 599 l 282 599 l 282 844 l 439 844 l 439 599 l 685 599 z "},",":{"ha":240,"x_min":18,"x_max":222,"o":"m 18 -124 l 78 165 l 222 165 l 142 -124 l 18 -124 z "},"-":{"ha":401,"x_min":28,"x_max":374,"o":"m 28 408 l 28 567 l 374 567 l 374 408 l 28 408 z "},".":{"ha":197,"x_min":18,"x_max":179,"o":"m 94 0 q 40 22 61 0 q 18 76 18 43 l 18 94 q 40 149 18 128 q 94 171 61 171 l 103 171 q 158 149 136 171 q 179 94 179 128 l 179 76 q 158 22 179 43 q 103 0 136 0 l 94 0 z "},"/":{"ha":514,"x_min":28,"x_max":485,"o":"m 28 0 l 317 972 l 485 972 l 197 0 l 28 0 z "},":":{"ha":232,"x_min":35,"x_max":197,"o":"m 111 550 q 56 572 78 550 q 35 625 35 593 l 35 644 q 56 699 35 678 q 111 721 78 721 l 121 721 q 174 699 153 721 q 196 644 196 678 l 196 625 q 174 572 196 593 q 121 550 153 550 l 111 550 m 113 60 q 58 81 79 60 q 36 135 36 103 l 36 154 q 58 208 36 186 q 113 229 79 229 l 122 229 q 176 208 154 229 q 197 154 197 186 l 197 135 q 176 81 197 103 q 122 60 154 60 l 113 60 z "},";":{"ha":257,"x_min":15,"x_max":222,"o":"m 138 538 q 83 559 104 538 q 61 613 61 581 l 61 632 q 83 685 61 664 q 138 707 104 707 l 146 707 q 201 685 179 707 q 222 632 222 664 l 222 613 q 201 559 222 581 q 146 538 179 538 l 138 538 m 15 -124 l 75 165 l 219 165 l 139 -124 l 15 -124 z "},"<":{"ha":521,"x_min":28,"x_max":451,"o":"m 451 38 l 28 371 l 28 554 l 451 885 l 451 671 l 181 461 l 451 253 l 451 38 z "},"=":{"ha":607,"x_min":35,"x_max":572,"o":"m 35 572 l 35 729 l 572 729 l 572 572 l 35 572 m 35 233 l 35 390 l 572 390 l 572 233 l 35 233 z "},">":{"ha":521,"x_min":69,"x_max":493,"o":"m 69 38 l 69 253 l 340 461 l 69 671 l 69 885 l 493 554 l 493 371 l 69 38 z "},"?":{"ha":717,"x_min":46,"x_max":671,"o":"m 568 972 q 642 944 614 972 q 671 872 671 915 l 671 485 q 642 413 671 442 q 568 385 614 385 l 449 385 q 422 358 422 385 l 422 232 l 274 232 l 274 436 q 302 506 274 478 q 374 533 331 533 l 475 533 q 501 560 501 533 l 501 788 q 475 815 501 815 l 242 815 q 215 788 215 815 l 215 692 l 46 692 l 46 872 q 75 944 46 915 q 149 972 104 972 l 568 972 m 351 171 q 406 149 385 171 q 428 94 428 128 l 428 76 q 406 22 428 43 q 351 0 385 0 l 343 0 q 288 22 310 0 q 267 76 267 43 l 267 94 q 288 149 267 128 q 343 171 310 171 l 351 171 z "},"@":{"ha":772,"x_min":49,"x_max":724,"o":"m 156 0 q 80 29 111 0 q 49 100 49 58 l 49 669 q 80 740 49 711 q 156 769 111 769 l 617 769 q 692 740 661 769 q 724 669 724 711 l 724 243 q 703 197 724 215 q 653 178 682 178 l 542 178 q 499 192 517 178 q 479 228 482 206 q 456 192 475 206 q 413 178 438 178 l 307 178 q 257 197 278 178 q 236 244 236 215 l 236 525 q 257 572 236 553 q 307 592 278 592 l 532 592 l 532 300 q 538 288 532 293 q 550 282 543 282 l 594 282 q 613 300 613 282 l 613 622 q 601 652 613 640 q 571 664 590 664 l 201 664 q 171 652 182 664 q 160 622 160 640 l 160 147 q 171 117 160 129 q 201 106 182 106 l 724 106 l 724 0 l 156 0 m 364 282 l 406 282 q 424 300 424 282 l 424 488 l 364 488 q 347 469 347 488 l 347 300 q 364 282 347 282 z "},"A":{"ha":810,"x_min":28,"x_max":782,"o":"m 610 0 l 550 217 l 260 217 l 200 0 l 28 0 l 314 972 l 496 972 l 782 0 l 610 0 m 303 374 l 507 374 l 406 747 l 303 374 z "},"B":{"ha":761,"x_min":69,"x_max":694,"o":"m 592 972 q 666 944 638 972 q 694 872 694 915 l 694 579 q 622 490 694 507 q 694 403 694 476 l 694 100 q 665 29 694 58 q 592 0 636 0 l 69 0 l 69 972 l 592 972 m 525 788 q 499 815 525 815 l 239 815 l 239 569 l 494 569 q 525 601 525 569 l 525 788 m 525 381 q 494 411 525 411 l 239 411 l 239 157 l 499 157 q 525 185 525 157 l 525 381 z "},"C":{"ha":758,"x_min":67,"x_max":692,"o":"m 589 972 q 663 944 635 972 q 692 872 692 915 l 692 678 l 522 678 l 522 788 q 496 815 522 815 l 263 815 q 236 788 236 815 l 236 185 q 263 157 236 157 l 496 157 q 522 185 522 157 l 522 294 l 692 294 l 692 100 q 663 29 692 58 q 589 0 633 0 l 169 0 q 96 29 125 0 q 67 100 67 58 l 67 872 q 96 944 67 915 q 169 972 125 972 l 589 972 z "},"D":{"ha":761,"x_min":69,"x_max":694,"o":"m 592 972 q 666 944 638 972 q 694 872 694 915 l 694 100 q 665 29 694 58 q 592 0 636 0 l 69 0 l 69 972 l 592 972 m 525 788 q 499 815 525 815 l 239 815 l 239 157 l 499 157 q 525 185 525 157 l 525 788 z "},"E":{"ha":686,"x_min":69,"x_max":629,"o":"m 629 815 l 239 815 l 239 567 l 531 567 l 531 408 l 239 408 l 239 157 l 629 157 l 629 0 l 69 0 l 69 972 l 629 972 l 629 815 z "},"F":{"ha":667,"x_min":69,"x_max":631,"o":"m 631 815 l 239 815 l 239 561 l 532 561 l 532 404 l 239 404 l 239 0 l 69 0 l 69 972 l 631 972 l 631 815 z "},"G":{"ha":758,"x_min":67,"x_max":692,"o":"m 589 972 q 663 944 635 972 q 692 872 692 915 l 692 693 l 522 693 l 522 788 q 496 815 522 815 l 263 815 q 236 788 236 815 l 236 185 q 263 157 236 157 l 496 157 q 522 185 522 157 l 522 413 l 379 413 l 379 563 l 692 563 l 692 100 q 663 29 692 58 q 589 0 633 0 l 169 0 q 96 29 125 0 q 67 100 67 58 l 67 872 q 96 944 67 915 q 169 972 125 972 l 589 972 z "},"H":{"ha":775,"x_min":69,"x_max":706,"o":"m 536 972 l 706 972 l 706 0 l 536 0 l 536 410 l 239 410 l 239 0 l 69 0 l 69 972 l 239 972 l 239 568 l 536 568 l 536 972 z "},"I":{"ha":317,"x_min":74,"x_max":243,"o":"m 74 0 l 74 972 l 243 972 l 243 0 l 74 0 z "},"J":{"ha":722,"x_min":28,"x_max":653,"o":"m 483 972 l 653 972 l 653 100 q 624 29 653 58 q 550 0 594 0 l 131 0 q 57 29 86 0 q 28 100 28 58 l 28 310 l 197 310 l 197 185 q 224 157 197 157 l 457 157 q 483 185 483 157 l 483 972 z "},"K":{"ha":764,"x_min":69,"x_max":710,"o":"m 606 568 q 679 540 650 568 q 708 468 708 511 l 708 0 l 539 0 l 539 383 q 513 410 539 410 l 239 410 l 239 0 l 69 0 l 69 972 l 239 972 l 239 568 l 433 568 l 535 972 l 710 972 l 592 568 l 606 568 z "},"L":{"ha":626,"x_min":69,"x_max":597,"o":"m 239 157 l 597 157 l 597 0 l 69 0 l 69 972 l 239 972 l 239 157 z "},"M":{"ha":990,"x_min":69,"x_max":921,"o":"m 921 972 l 921 0 l 751 0 l 751 678 l 565 122 l 419 122 l 239 658 l 239 0 l 69 0 l 69 972 l 300 972 l 492 390 l 683 972 l 921 972 z "},"N":{"ha":804,"x_min":69,"x_max":736,"o":"m 569 972 l 736 972 l 736 0 l 544 0 l 236 640 l 236 0 l 69 0 l 69 972 l 264 972 l 569 336 l 569 972 z "},"O":{"ha":758,"x_min":67,"x_max":692,"o":"m 589 972 q 663 944 635 972 q 692 872 692 915 l 692 100 q 663 29 692 58 q 589 0 633 0 l 169 0 q 96 29 125 0 q 67 100 67 58 l 67 872 q 96 944 67 915 q 169 972 125 972 l 589 972 m 522 788 q 496 815 522 815 l 263 815 q 236 788 236 815 l 236 185 q 263 157 236 157 l 496 157 q 522 185 522 157 l 522 788 z "},"P":{"ha":725,"x_min":69,"x_max":667,"o":"m 564 972 q 638 944 610 972 q 667 872 667 915 l 667 439 q 638 368 667 397 q 564 339 608 339 l 239 339 l 239 0 l 69 0 l 69 972 l 564 972 m 497 788 q 471 815 497 815 l 239 815 l 239 497 l 471 497 q 497 524 497 497 l 497 788 z "},"Q":{"ha":758,"x_min":67,"x_max":692,"o":"m 589 972 q 663 944 635 972 q 692 872 692 915 l 692 100 q 663 29 692 58 q 589 0 633 0 l 586 0 l 640 -129 l 486 -129 l 439 0 l 169 0 q 96 29 125 0 q 67 100 67 58 l 67 872 q 96 944 67 915 q 169 972 125 972 l 589 972 m 522 788 q 496 815 522 815 l 263 815 q 236 788 236 815 l 236 185 q 263 157 236 157 l 496 157 q 522 185 522 157 l 522 788 z "},"R":{"ha":765,"x_min":69,"x_max":696,"o":"m 593 972 q 667 944 638 972 q 696 872 696 915 l 696 549 q 624 460 696 478 q 696 372 696 446 l 696 0 l 526 0 l 526 350 q 496 382 526 382 l 239 382 l 239 0 l 69 0 l 69 972 l 593 972 m 526 788 q 500 815 526 815 l 239 815 l 239 539 l 496 539 q 526 571 526 539 l 526 788 z "},"S":{"ha":758,"x_min":67,"x_max":692,"o":"m 589 972 q 663 944 635 972 q 692 872 692 915 l 692 701 l 522 701 l 522 788 q 496 815 522 815 l 263 815 q 236 788 236 815 l 236 594 q 263 567 236 567 l 589 567 q 663 538 635 567 q 692 467 692 510 l 692 100 q 663 29 692 58 q 589 0 633 0 l 169 0 q 96 29 125 0 q 67 100 67 58 l 67 283 l 236 283 l 236 185 q 263 157 236 157 l 496 157 q 522 185 522 157 l 522 383 q 496 410 522 410 l 169 410 q 96 438 125 410 q 67 510 67 467 l 67 872 q 96 944 67 915 q 169 972 125 972 l 589 972 z "},"T":{"ha":718,"x_min":46,"x_max":671,"o":"m 671 972 l 671 815 l 444 815 l 444 0 l 275 0 l 275 815 l 46 815 l 46 972 l 671 972 z "},"U":{"ha":764,"x_min":69,"x_max":694,"o":"m 525 972 l 694 972 l 694 100 q 665 29 694 58 q 592 0 636 0 l 172 0 q 99 29 128 0 q 69 100 69 58 l 69 972 l 239 972 l 239 185 q 265 157 239 157 l 499 157 q 525 185 525 157 l 525 972 z "},"V":{"ha":810,"x_min":28,"x_max":782,"o":"m 610 972 l 782 972 l 496 0 l 314 0 l 28 972 l 200 972 l 406 225 l 610 972 z "},"W":{"ha":1063,"x_min":28,"x_max":1035,"o":"m 847 972 l 1035 972 l 869 0 l 646 0 l 532 490 l 417 0 l 193 0 l 28 972 l 215 972 l 317 279 l 454 850 l 608 850 l 746 279 l 847 972 z "},"X":{"ha":761,"x_min":35,"x_max":726,"o":"m 726 972 l 500 486 l 726 0 l 540 0 l 381 342 l 221 0 l 35 0 l 263 486 l 35 972 l 221 972 l 381 631 l 540 972 l 726 972 z "},"Y":{"ha":808,"x_min":24,"x_max":785,"o":"m 785 972 l 489 282 l 489 0 l 319 0 l 319 279 l 24 972 l 204 972 l 404 468 l 604 972 l 785 972 z "},"Z":{"ha":771,"x_min":61,"x_max":710,"o":"m 67 972 l 710 972 l 710 813 l 258 157 l 710 157 l 710 0 l 61 0 l 61 160 l 508 815 l 67 815 l 67 972 z "},"[":{"ha":343,"x_min":24,"x_max":325,"o":"m 193 183 q 218 157 193 157 l 325 157 l 325 0 l 110 0 q 24 83 24 0 l 24 889 q 110 972 24 972 l 325 972 l 325 815 l 218 815 q 193 789 193 815 l 193 183 z "},"\\":{"ha":514,"x_min":28,"x_max":486,"o":"m 486 0 l 317 0 l 28 972 l 197 972 l 486 0 z "},"]":{"ha":343,"x_min":18,"x_max":319,"o":"m 233 972 q 319 889 319 972 l 319 83 q 233 0 319 0 l 18 0 l 18 157 l 125 157 q 150 183 150 157 l 150 789 q 125 815 150 815 l 18 815 l 18 972 l 233 972 z "},"_":{"ha":665,"x_min":24,"x_max":642,"o":"m 24 -1 l 24 151 l 642 151 l 642 -1 l 24 -1 z "},"{":{"ha":314,"x_min":49,"x_max":300,"o":"m 260 579 q 188 490 260 507 q 260 403 260 476 l 260 185 q 286 157 260 157 l 300 157 l 300 0 l 193 0 q 119 29 149 0 q 90 100 90 58 l 90 381 q 60 411 90 411 l 49 411 l 49 569 l 60 569 q 90 601 90 569 l 90 872 q 119 944 90 915 q 193 972 149 972 l 300 972 l 300 815 l 286 815 q 260 788 260 815 l 260 579 z "},"}":{"ha":321,"x_min":21,"x_max":272,"o":"m 263 569 l 272 569 l 272 411 l 263 411 q 231 381 231 411 l 231 100 q 201 29 231 58 q 128 0 172 0 l 21 0 l 21 157 l 35 157 q 63 185 63 157 l 63 403 q 133 490 63 476 q 63 579 63 507 l 63 788 q 35 815 63 815 l 21 815 l 21 972 l 128 972 q 202 944 174 972 q 231 872 231 915 l 231 601 q 263 569 231 569 z "},"¢":{"ha":624,"x_min":35,"x_max":589,"o":"m 589 567 l 419 567 l 419 596 q 393 622 419 622 l 231 622 q 204 596 204 622 l 204 406 q 231 379 204 379 l 393 379 q 419 406 419 379 l 419 435 l 589 435 l 589 321 q 560 249 589 278 q 486 221 531 221 l 396 221 l 396 114 l 229 114 l 229 221 l 138 221 q 64 250 93 221 q 35 321 35 279 l 35 681 q 64 751 35 722 q 138 781 93 781 l 229 781 l 229 883 l 396 883 l 396 781 l 486 781 q 560 751 531 781 q 589 681 589 722 l 589 567 z "},"£":{"ha":714,"x_min":56,"x_max":658,"o":"m 289 204 l 658 204 l 658 46 l 56 46 l 56 204 l 93 204 q 119 231 119 204 l 119 408 l 81 408 l 81 567 l 119 567 l 119 872 q 149 944 119 915 q 222 972 178 972 l 579 972 l 579 815 l 315 815 q 289 788 289 815 l 289 567 l 503 567 l 503 408 l 289 408 l 289 204 z "},"¥":{"ha":833,"x_min":36,"x_max":797,"o":"m 797 972 l 610 536 l 733 536 l 733 401 l 553 401 l 513 308 l 733 308 l 733 174 l 501 174 l 501 0 l 332 0 l 332 174 l 100 174 l 100 308 l 319 308 l 279 401 l 100 401 l 100 536 l 222 536 l 36 972 l 217 972 l 417 468 l 617 972 l 797 972 z "},"°":{"ha":376,"x_min":24,"x_max":353,"o":"m 111 633 q 48 657 72 633 q 24 718 24 681 l 24 888 q 48 949 24 925 q 111 972 72 972 l 267 972 q 329 949 306 972 q 353 888 353 925 l 353 718 q 329 657 353 681 q 267 633 306 633 l 111 633 m 164 749 l 214 749 q 232 756 225 749 q 239 774 239 764 l 239 832 q 232 849 239 842 q 214 857 225 857 l 164 857 q 145 849 153 857 q 138 832 138 842 l 138 774 q 145 756 138 764 q 164 749 153 749 z "},"À":{"ha":810,"x_min":28,"x_max":782,"o":"m 492 1015 l 363 1015 l 232 1143 l 383 1143 l 492 1015 m 610 0 l 550 217 l 260 217 l 200 0 l 28 0 l 314 972 l 496 972 l 782 0 l 610 0 m 303 374 l 507 374 l 406 747 l 303 374 z "},"Á":{"ha":810,"x_min":28,"x_max":782,"o":"m 582 1142 l 451 1014 l 322 1014 l 431 1142 l 582 1142 m 610 0 l 550 217 l 260 217 l 200 0 l 28 0 l 314 972 l 496 972 l 782 0 l 610 0 m 303 374 l 507 374 l 406 747 l 303 374 z "},"Â":{"ha":810,"x_min":28,"x_max":782,"o":"m 404 1083 l 346 1014 l 200 1014 l 331 1144 l 476 1144 l 607 1014 l 463 1014 l 404 1083 m 610 0 l 550 217 l 260 217 l 200 0 l 28 0 l 314 972 l 496 972 l 782 0 l 610 0 m 303 374 l 507 374 l 406 747 l 303 374 z "},"Ã":{"ha":810,"x_min":28,"x_max":782,"o":"m 322 1049 l 261 1000 l 204 1072 l 282 1135 q 388 1144 326 1174 l 460 1108 q 493 1111 476 1100 l 553 1157 l 611 1085 l 531 1021 q 431 1013 486 985 l 357 1051 q 322 1049 338 1061 m 610 0 l 550 217 l 260 217 l 200 0 l 28 0 l 314 972 l 496 972 l 782 0 l 610 0 m 303 374 l 507 374 l 406 747 l 303 374 z "},"Ä":{"ha":810,"x_min":28,"x_max":782,"o":"m 310 1017 q 275 1031 289 1017 q 261 1065 261 1044 l 261 1078 q 275 1114 261 1100 q 310 1128 289 1128 l 317 1128 q 351 1114 338 1128 q 365 1078 365 1100 l 365 1065 q 351 1031 365 1044 q 317 1017 338 1017 l 310 1017 m 494 1017 q 460 1031 474 1017 q 446 1065 446 1044 l 446 1078 q 460 1114 446 1100 q 494 1128 474 1128 l 501 1128 q 536 1114 522 1128 q 550 1078 550 1100 l 550 1065 q 536 1031 550 1044 q 501 1017 522 1017 l 494 1017 m 610 0 l 550 217 l 260 217 l 200 0 l 28 0 l 314 972 l 496 972 l 782 0 l 610 0 m 303 374 l 507 374 l 406 747 l 303 374 z "},"Å":{"ha":810,"x_min":28,"x_max":782,"o":"m 371 999 q 342 1010 353 999 q 331 1038 331 1021 l 331 1110 q 342 1137 331 1125 q 371 1149 353 1149 l 442 1149 q 470 1137 458 1149 q 482 1110 482 1125 l 482 1038 q 470 1010 482 1021 q 442 999 458 999 l 371 999 m 382 1086 l 382 1063 q 392 1050 382 1050 l 418 1050 q 429 1063 429 1050 l 429 1086 q 418 1097 429 1097 l 392 1097 q 382 1086 382 1097 m 610 0 l 550 217 l 260 217 l 200 0 l 28 0 l 314 972 l 496 972 l 782 0 l 610 0 m 303 374 l 507 374 l 406 747 l 303 374 z "},"Æ":{"ha":1160,"x_min":28,"x_max":1103,"o":"m 1103 815 l 713 815 l 713 567 l 1004 567 l 1004 408 l 713 408 l 713 157 l 1103 157 l 1103 0 l 543 0 l 543 243 l 275 243 l 200 0 l 28 0 l 349 972 l 1103 972 l 1103 815 m 324 401 l 543 401 l 543 815 l 451 815 l 324 401 z "},"Ç":{"ha":758,"x_min":67,"x_max":692,"o":"m 589 972 q 663 944 635 972 q 692 872 692 915 l 692 678 l 522 678 l 522 788 q 496 815 522 815 l 263 815 q 236 788 236 815 l 236 185 q 263 157 236 157 l 496 157 q 522 185 522 157 l 522 294 l 692 294 l 692 100 q 663 29 692 58 q 589 0 633 0 l 422 0 l 401 -32 l 422 -32 q 484 -50 460 -32 q 508 -103 508 -68 l 508 -122 q 407 -211 508 -211 l 339 -211 q 239 -194 274 -211 l 274 -125 q 351 -133 300 -133 l 378 -133 q 413 -114 413 -133 l 413 -107 q 383 -93 413 -93 l 279 -93 l 279 -44 l 308 0 l 169 0 q 96 29 125 0 q 67 100 67 58 l 67 872 q 96 944 67 915 q 169 972 125 972 l 589 972 z "},"È":{"ha":686,"x_min":69,"x_max":629,"o":"m 446 1015 l 317 1015 l 186 1143 l 338 1143 l 446 1015 m 629 815 l 239 815 l 239 567 l 531 567 l 531 408 l 239 408 l 239 157 l 629 157 l 629 0 l 69 0 l 69 972 l 629 972 l 629 815 z "},"É":{"ha":686,"x_min":69,"x_max":629,"o":"m 538 1142 l 407 1014 l 278 1014 l 386 1142 l 538 1142 m 629 815 l 239 815 l 239 567 l 531 567 l 531 408 l 239 408 l 239 157 l 629 157 l 629 0 l 69 0 l 69 972 l 629 972 l 629 815 z "},"Ê":{"ha":686,"x_min":69,"x_max":629,"o":"m 360 1083 l 301 1014 l 156 1014 l 286 1144 l 432 1144 l 563 1014 l 418 1014 l 360 1083 m 629 815 l 239 815 l 239 567 l 531 567 l 531 408 l 239 408 l 239 157 l 629 157 l 629 0 l 69 0 l 69 972 l 629 972 l 629 815 z "},"Ë":{"ha":686,"x_min":69,"x_max":629,"o":"m 265 1017 q 231 1031 244 1017 q 217 1065 217 1044 l 217 1078 q 231 1114 217 1100 q 265 1128 244 1128 l 272 1128 q 307 1114 293 1128 q 321 1078 321 1100 l 321 1065 q 307 1031 321 1044 q 272 1017 293 1017 l 265 1017 m 450 1017 q 415 1031 429 1017 q 401 1065 401 1044 l 401 1078 q 415 1114 401 1100 q 450 1128 429 1128 l 457 1128 q 492 1114 478 1128 q 506 1078 506 1100 l 506 1065 q 492 1031 506 1044 q 457 1017 478 1017 l 450 1017 m 629 815 l 239 815 l 239 567 l 531 567 l 531 408 l 239 408 l 239 157 l 629 157 l 629 0 l 69 0 l 69 972 l 629 972 l 629 815 z "},"Ì":{"ha":317,"x_min":-15,"x_max":244,"o":"m 244 1015 l 115 1015 l -15 1143 l 136 1143 l 244 1015 m 74 0 l 74 972 l 243 972 l 243 0 l 74 0 z "},"Í":{"ha":317,"x_min":74,"x_max":336,"o":"m 76 1014 l 185 1142 l 336 1142 l 206 1014 l 76 1014 m 74 0 l 74 972 l 243 972 l 243 0 l 74 0 z "},"Î":{"ha":317,"x_min":-47,"x_max":360,"o":"m 157 1083 l 99 1014 l -47 1014 l 83 1144 l 229 1144 l 360 1014 l 215 1014 l 157 1083 m 74 0 l 74 972 l 243 972 l 243 0 l 74 0 z "},"Ï":{"ha":317,"x_min":15,"x_max":304,"o":"m 64 1017 q 29 1031 43 1017 q 15 1065 15 1044 l 15 1078 q 29 1114 15 1100 q 64 1128 43 1128 l 71 1128 q 106 1114 92 1128 q 119 1078 119 1100 l 119 1065 q 106 1031 119 1044 q 71 1017 92 1017 l 64 1017 m 249 1017 q 214 1031 228 1017 q 200 1065 200 1044 l 200 1078 q 214 1114 200 1100 q 249 1128 228 1128 l 256 1128 q 290 1114 276 1128 q 304 1078 304 1100 l 304 1065 q 290 1031 304 1044 q 256 1017 276 1017 l 249 1017 m 74 0 l 74 972 l 243 972 l 243 0 l 74 0 z "},"Ð":{"ha":810,"x_min":49,"x_max":743,"o":"m 640 972 q 714 944 685 972 q 743 872 743 915 l 743 100 q 714 29 743 58 q 640 0 685 0 l 118 0 l 118 408 l 49 408 l 49 567 l 118 567 l 118 972 l 640 972 m 574 788 q 547 815 574 815 l 286 815 l 286 567 l 428 567 l 428 408 l 286 408 l 286 157 l 547 157 q 574 185 574 157 l 574 788 z "},"Ñ":{"ha":804,"x_min":69,"x_max":736,"o":"m 318 1049 l 257 1000 l 200 1072 l 278 1135 q 383 1144 322 1174 l 456 1108 q 489 1111 472 1100 l 549 1157 l 607 1085 l 526 1021 q 426 1013 482 985 l 353 1051 q 318 1049 333 1061 m 569 972 l 736 972 l 736 0 l 544 0 l 236 640 l 236 0 l 69 0 l 69 972 l 264 972 l 569 336 l 569 972 z "},"Ò":{"ha":758,"x_min":67,"x_max":692,"o":"m 465 1015 l 336 1015 l 206 1143 l 357 1143 l 465 1015 m 589 972 q 663 944 635 972 q 692 872 692 915 l 692 100 q 663 29 692 58 q 589 0 633 0 l 169 0 q 96 29 125 0 q 67 100 67 58 l 67 872 q 96 944 67 915 q 169 972 125 972 l 589 972 m 522 788 q 496 815 522 815 l 263 815 q 236 788 236 815 l 236 185 q 263 157 236 157 l 496 157 q 522 185 522 157 l 522 788 z "},"Ó":{"ha":758,"x_min":67,"x_max":692,"o":"m 557 1142 l 426 1014 l 297 1014 l 406 1142 l 557 1142 m 589 972 q 663 944 635 972 q 692 872 692 915 l 692 100 q 663 29 692 58 q 589 0 633 0 l 169 0 q 96 29 125 0 q 67 100 67 58 l 67 872 q 96 944 67 915 q 169 972 125 972 l 589 972 m 522 788 q 496 815 522 815 l 263 815 q 236 788 236 815 l 236 185 q 263 157 236 157 l 496 157 q 522 185 522 157 l 522 788 z "},"Ô":{"ha":758,"x_min":67,"x_max":692,"o":"m 378 1083 l 319 1014 l 174 1014 l 304 1144 l 450 1144 l 581 1014 l 436 1014 l 378 1083 m 589 972 q 663 944 635 972 q 692 872 692 915 l 692 100 q 663 29 692 58 q 589 0 633 0 l 169 0 q 96 29 125 0 q 67 100 67 58 l 67 872 q 96 944 67 915 q 169 972 125 972 l 589 972 m 522 788 q 496 815 522 815 l 263 815 q 236 788 236 815 l 236 185 q 263 157 236 157 l 496 157 q 522 185 522 157 l 522 788 z "},"Õ":{"ha":758,"x_min":67,"x_max":692,"o":"m 296 1049 l 235 1000 l 178 1072 l 256 1135 q 361 1144 300 1174 l 433 1108 q 467 1111 450 1100 l 526 1157 l 585 1085 l 504 1021 q 404 1013 460 985 l 331 1051 q 296 1049 311 1061 m 589 972 q 663 944 635 972 q 692 872 692 915 l 692 100 q 663 29 692 58 q 589 0 633 0 l 169 0 q 96 29 125 0 q 67 100 67 58 l 67 872 q 96 944 67 915 q 169 972 125 972 l 589 972 m 522 788 q 496 815 522 815 l 263 815 q 236 788 236 815 l 236 185 q 263 157 236 157 l 496 157 q 522 185 522 157 l 522 788 z "},"Ö":{"ha":758,"x_min":67,"x_max":692,"o":"m 283 1017 q 249 1031 263 1017 q 235 1065 235 1044 l 235 1078 q 249 1114 235 1100 q 283 1128 263 1128 l 290 1128 q 325 1114 311 1128 q 339 1078 339 1100 l 339 1065 q 325 1031 339 1044 q 290 1017 311 1017 l 283 1017 m 468 1017 q 433 1031 447 1017 q 419 1065 419 1044 l 419 1078 q 433 1114 419 1100 q 468 1128 447 1128 l 475 1128 q 510 1114 496 1128 q 524 1078 524 1100 l 524 1065 q 510 1031 524 1044 q 475 1017 496 1017 l 468 1017 m 589 972 q 663 944 635 972 q 692 872 692 915 l 692 100 q 663 29 692 58 q 589 0 633 0 l 169 0 q 96 29 125 0 q 67 100 67 58 l 67 872 q 96 944 67 915 q 169 972 125 972 l 589 972 m 522 788 q 496 815 522 815 l 263 815 q 236 788 236 815 l 236 185 q 263 157 236 157 l 496 157 q 522 185 522 157 l 522 788 z "},"×":{"ha":640,"x_min":35,"x_max":606,"o":"m 606 668 l 432 494 l 606 321 l 494 210 l 321 383 l 146 208 l 35 319 l 210 494 l 35 669 l 146 781 l 321 606 l 494 779 l 606 668 z "},"Ø":{"ha":779,"x_min":68,"x_max":721,"o":"m 721 972 l 693 917 q 703 872 703 894 l 703 100 q 674 29 703 58 q 600 0 644 0 l 68 0 l 92 47 q 78 100 78 72 l 78 872 q 106 944 78 915 q 181 972 135 972 l 721 972 m 246 353 l 479 815 l 274 815 q 246 788 246 815 l 246 353 m 533 601 l 308 157 l 507 157 q 533 185 533 157 l 533 601 z "},"Ù":{"ha":764,"x_min":69,"x_max":694,"o":"m 468 1015 l 339 1015 l 208 1143 l 360 1143 l 468 1015 m 525 972 l 694 972 l 694 100 q 665 29 694 58 q 592 0 636 0 l 172 0 q 99 29 128 0 q 69 100 69 58 l 69 972 l 239 972 l 239 185 q 265 157 239 157 l 499 157 q 525 185 525 157 l 525 972 z "},"Ú":{"ha":764,"x_min":69,"x_max":694,"o":"m 560 1142 l 429 1014 l 300 1014 l 408 1142 l 560 1142 m 525 972 l 694 972 l 694 100 q 665 29 694 58 q 592 0 636 0 l 172 0 q 99 29 128 0 q 69 100 69 58 l 69 972 l 239 972 l 239 185 q 265 157 239 157 l 499 157 q 525 185 525 157 l 525 972 z "},"Û":{"ha":764,"x_min":69,"x_max":694,"o":"m 381 1083 l 322 1014 l 176 1014 l 307 1144 l 453 1144 l 583 1014 l 439 1014 l 381 1083 m 525 972 l 694 972 l 694 100 q 665 29 694 58 q 592 0 636 0 l 172 0 q 99 29 128 0 q 69 100 69 58 l 69 972 l 239 972 l 239 185 q 265 157 239 157 l 499 157 q 525 185 525 157 l 525 972 z "},"Ü":{"ha":764,"x_min":69,"x_max":694,"o":"m 286 1017 q 251 1031 265 1017 q 238 1065 238 1044 l 238 1078 q 251 1114 238 1100 q 286 1128 265 1128 l 293 1128 q 328 1114 314 1128 q 342 1078 342 1100 l 342 1065 q 328 1031 342 1044 q 293 1017 314 1017 l 286 1017 m 471 1017 q 436 1031 450 1017 q 422 1065 422 1044 l 422 1078 q 436 1114 422 1100 q 471 1128 450 1128 l 478 1128 q 513 1114 499 1128 q 526 1078 526 1100 l 526 1065 q 513 1031 526 1044 q 478 1017 499 1017 l 471 1017 m 525 972 l 694 972 l 694 100 q 665 29 694 58 q 592 0 636 0 l 172 0 q 99 29 128 0 q 69 100 69 58 l 69 972 l 239 972 l 239 185 q 265 157 239 157 l 499 157 q 525 185 525 157 l 525 972 z "},"Ý":{"ha":808,"x_min":24,"x_max":785,"o":"m 582 1142 l 451 1014 l 322 1014 l 431 1142 l 582 1142 m 785 972 l 489 282 l 489 0 l 319 0 l 319 279 l 24 972 l 204 972 l 404 468 l 604 972 l 785 972 z "},"Þ":{"ha":725,"x_min":69,"x_max":667,"o":"m 564 824 q 638 795 608 824 q 667 724 667 767 l 667 283 q 638 212 667 240 q 564 183 610 183 l 239 183 l 239 0 l 69 0 l 69 972 l 239 972 l 239 824 l 564 824 m 497 639 q 471 665 497 665 l 239 665 l 239 340 l 471 340 q 497 367 497 340 l 497 639 z "},"ß":{"ha":767,"x_min":69,"x_max":697,"o":"m 594 582 q 668 553 639 582 q 697 482 697 524 l 697 100 q 668 29 697 58 q 594 0 639 0 l 314 0 l 314 157 l 501 157 q 528 185 528 157 l 528 397 q 501 424 528 424 l 350 424 l 350 582 l 490 815 l 265 815 q 239 788 239 815 l 239 0 l 69 0 l 69 872 q 99 944 69 915 q 172 972 128 972 l 674 972 l 674 815 l 533 582 l 594 582 z "},"÷":{"ha":693,"x_min":35,"x_max":658,"o":"m 342 667 q 287 688 308 667 q 265 743 265 710 l 265 761 q 287 816 265 794 q 342 838 308 838 l 351 838 q 406 816 385 838 q 428 761 428 794 l 428 743 q 406 688 428 710 q 351 667 385 667 l 342 667 m 35 411 l 35 568 l 658 568 l 658 411 l 35 411 m 342 132 q 287 153 308 132 q 265 208 265 175 l 265 226 q 287 281 265 260 q 342 303 308 303 l 351 303 q 406 281 385 303 q 428 226 428 260 l 428 208 q 406 153 428 175 q 351 132 385 132 l 342 132 z "},"ÿ":{"ha":808,"x_min":24,"x_max":785,"o":"m 308 1017 q 274 1031 288 1017 q 260 1065 260 1044 l 260 1078 q 274 1114 260 1100 q 308 1128 288 1128 l 315 1128 q 350 1114 336 1128 q 364 1078 364 1100 l 364 1065 q 350 1031 364 1044 q 315 1017 336 1017 l 308 1017 m 493 1017 q 458 1031 472 1017 q 444 1065 444 1044 l 444 1078 q 458 1114 444 1100 q 493 1128 472 1128 l 500 1128 q 535 1114 521 1128 q 549 1078 549 1100 l 549 1065 q 535 1031 549 1044 q 500 1017 521 1017 l 493 1017 m 785 972 l 489 282 l 489 0 l 319 0 l 319 279 l 24 972 l 204 972 l 404 468 l 604 972 l 785 972 z "},"Œ":{"ha":1140,"x_min":67,"x_max":1083,"o":"m 693 815 l 693 567 l 985 567 l 985 408 l 693 408 l 693 157 l 1083 157 l 1083 0 l 169 0 q 96 29 125 0 q 67 100 67 58 l 67 872 q 96 944 67 915 q 169 972 125 972 l 1083 972 l 1083 815 l 693 815 m 524 788 q 497 815 524 815 l 263 815 q 236 788 236 815 l 236 185 q 263 157 236 157 l 497 157 q 524 185 524 157 l 524 788 z "},"Ŵ":{"ha":1063,"x_min":28,"x_max":1035,"o":"m 531 1063 l 472 993 l 326 993 l 457 1124 l 603 1124 l 733 993 l 589 993 l 531 1063 m 847 972 l 1035 972 l 869 0 l 646 0 l 532 490 l 417 0 l 193 0 l 28 972 l 215 972 l 317 279 l 454 850 l 608 850 l 746 279 l 847 972 z "},"Ŷ":{"ha":808,"x_min":24,"x_max":785,"o":"m 403 1086 l 344 1017 l 200 1017 l 329 1147 l 476 1147 l 606 1017 l 461 1017 l 403 1086 m 785 972 l 489 282 l 489 0 l 319 0 l 319 279 l 24 972 l 204 972 l 404 468 l 604 972 l 785 972 z "},"̀":{"ha":0,"x_min":-260,"x_max":0,"o":"m 0 1015 l -129 1015 l -260 1143 l -108 1143 l 0 1015 z "},"́":{"ha":0,"x_min":-264,"x_max":-4,"o":"m -264 1015 l -156 1143 l -4 1143 l -135 1015 l -264 1015 z "},"̂":{"ha":0,"x_min":-408,"x_max":-1,"o":"m -1 1015 l -146 1015 l -204 1085 l -262 1015 l -408 1015 l -278 1146 l -132 1146 l -1 1015 z "},"̃":{"ha":0,"x_min":-396,"x_max":11,"o":"m -396 1072 l -318 1135 q -212 1144 -274 1174 l -140 1108 q -107 1111 -124 1100 l -47 1157 l 11 1085 l -69 1021 q -169 1013 -114 985 l -243 1051 q -278 1049 -262 1061 l -339 1000 l -396 1072 z "},"̇":{"ha":0,"x_min":-21,"x_max":83,"o":"m 28 1017 q -7 1031 7 1017 q -21 1065 -21 1044 l -21 1078 q -7 1114 -21 1100 q 28 1128 7 1128 l 35 1128 q 69 1114 56 1128 q 83 1078 83 1100 l 83 1065 q 69 1031 83 1044 q 35 1017 56 1017 l 28 1017 z "},"̈":{"ha":0,"x_min":-289,"x_max":0,"o":"m -240 1017 q -275 1031 -261 1017 q -289 1065 -289 1044 l -289 1078 q -275 1114 -289 1100 q -240 1128 -261 1128 l -233 1128 q -199 1114 -212 1128 q -185 1078 -185 1100 l -185 1065 q -199 1031 -185 1044 q -233 1017 -212 1017 l -240 1017 m -56 1017 q -90 1031 -76 1017 q -104 1065 -104 1044 l -104 1078 q -90 1114 -104 1100 q -56 1128 -76 1128 l -49 1128 q -14 1114 -28 1128 q 0 1078 0 1100 l 0 1065 q -14 1031 0 1044 q -49 1017 -28 1017 l -56 1017 z "},"̊":{"ha":0,"x_min":-151,"x_max":0,"o":"m -111 999 q -140 1010 -129 999 q -151 1038 -151 1021 l -151 1110 q -140 1137 -151 1125 q -111 1149 -128 1149 l -40 1149 q -12 1137 -24 1149 q 0 1110 0 1125 l 0 1038 q -12 1010 0 1021 q -40 999 -24 999 l -111 999 m -90 1050 l -64 1050 q -53 1063 -53 1050 l -53 1086 q -64 1097 -53 1097 l -90 1097 q -100 1086 -100 1097 l -100 1063 q -90 1050 -100 1050 z "},"̧":{"ha":0,"x_min":-287,"x_max":-18,"o":"m -253 -125 q -175 -133 -226 -133 l -149 -133 q -114 -114 -114 -133 l -114 -107 q -143 -93 -114 -93 l -247 -93 l -247 -44 l -211 10 l -97 10 l -125 -32 l -104 -32 q -42 -50 -67 -32 q -18 -103 -18 -68 l -18 -122 q -119 -211 -18 -211 l -187 -211 q -287 -194 -253 -211 l -253 -125 z "},"Ẁ":{"ha":1063,"x_min":28,"x_max":1035,"o":"m 618 988 l 489 988 l 358 1115 l 510 1115 l 618 988 m 847 972 l 1035 972 l 869 0 l 646 0 l 532 490 l 417 0 l 193 0 l 28 972 l 215 972 l 317 279 l 454 850 l 608 850 l 746 279 l 847 972 z "},"Ẃ":{"ha":1063,"x_min":28,"x_max":1035,"o":"m 710 1114 l 579 986 l 450 986 l 558 1114 l 710 1114 m 847 972 l 1035 972 l 869 0 l 646 0 l 532 490 l 417 0 l 193 0 l 28 972 l 215 972 l 317 279 l 454 850 l 608 850 l 746 279 l 847 972 z "},"Ẅ":{"ha":1063,"x_min":28,"x_max":1035,"o":"m 436 989 q 401 1003 415 989 q 388 1038 388 1017 l 388 1050 q 401 1086 388 1072 q 436 1100 415 1100 l 443 1100 q 478 1086 464 1100 q 492 1050 492 1072 l 492 1038 q 478 1003 492 1017 q 443 989 464 989 l 436 989 m 621 989 q 586 1003 600 989 q 572 1038 572 1017 l 572 1050 q 586 1086 572 1072 q 621 1100 600 1100 l 628 1100 q 663 1086 649 1100 q 676 1050 676 1072 l 676 1038 q 663 1003 676 1017 q 628 989 649 989 l 621 989 m 847 972 l 1035 972 l 869 0 l 646 0 l 532 490 l 417 0 l 193 0 l 28 972 l 215 972 l 317 279 l 454 850 l 608 850 l 746 279 l 847 972 z "},"Ỳ":{"ha":808,"x_min":24,"x_max":785,"o":"m 490 1015 l 361 1015 l 231 1143 l 382 1143 l 490 1015 m 785 972 l 489 282 l 489 0 l 319 0 l 319 279 l 24 972 l 204 972 l 404 468 l 604 972 l 785 972 z "},"‘":{"ha":240,"x_min":18,"x_max":222,"o":"m 222 974 l 163 685 l 18 685 l 99 974 l 222 974 z "},"’":{"ha":239,"x_min":17,"x_max":221,"o":"m 17 686 l 76 975 l 221 975 l 140 686 l 17 686 z "},"“":{"ha":515,"x_min":69,"x_max":497,"o":"m 274 974 l 214 685 l 69 685 l 150 974 l 274 974 m 497 974 l 439 685 l 293 685 l 374 974 l 497 974 z "},"”":{"ha":515,"x_min":18,"x_max":446,"o":"m 18 686 l 78 975 l 222 975 l 142 686 l 18 686 m 242 686 l 301 975 l 446 975 l 365 686 l 242 686 z "},"•":{"ha":300,"x_min":69,"x_max":231,"o":"m 146 386 q 91 408 113 386 q 69 463 69 429 l 69 481 q 91 535 69 514 q 146 557 113 557 l 156 557 q 209 535 188 557 q 231 481 231 514 l 231 463 q 209 408 231 429 q 156 386 188 386 l 146 386 z "},"€":{"ha":821,"x_min":60,"x_max":754,"o":"m 754 760 l 585 760 l 585 788 q 558 815 585 815 l 325 815 q 299 788 299 815 l 299 635 l 574 635 l 574 532 l 299 532 l 299 444 l 574 444 l 574 340 l 299 340 l 299 185 q 325 157 299 157 l 558 157 q 585 185 585 157 l 585 214 l 754 214 l 754 100 q 726 29 754 58 q 651 0 697 0 l 232 0 q 158 29 188 0 q 129 100 129 58 l 129 340 l 60 340 l 60 444 l 129 444 l 129 532 l 60 532 l 60 635 l 129 635 l 129 872 q 158 944 129 915 q 232 972 188 972 l 651 972 q 726 944 697 972 q 754 872 754 915 l 754 760 z "},"−":{"ha":565,"x_min":35,"x_max":531,"o":"m 35 568 l 531 568 l 531 401 l 35 401 l 35 568 z "}}}
